PathFileType  4	(X/Y/Z) H:\Shared drives\HIT\Data\HapticPilot\Subject1\Edited\Files_W_HJCs
DataRate	CameraRate	NumFrames	NumMarkers	Units	OrigDataRate	OrigDataStartFrame	OrigNumFrames
   50.0		   50.0		    5		     56		 mm	   50.0	      171	    227
Frame#	Time	r_knee			r_shank_antsup			r_ankle			r_calc			r_5meta			r_toe			L_knee			L_shank_antsup			L_ankle			L_calc			L_5meta			L_toe			r_mknee			r_mankle			L_mknee			L_mankle			r_sh2			r_sh3			r_sh4			L_sh2			L_sh3			r_thigh1			r_thigh2			r_thigh3			r_thigh4			r_thigh5			L_thigh1			L_thigh2			L_thigh3			L_thigh4			r.ASIS			r.PSIS			L.ASIS			L.PSIS			C7			R_Shoulder			L_Shoulder			Sternum			R_HJC			L_HJC			R_HJC_reg			L_HJC_reg			midPSIS			midASIS			midHJC			midPelvis			R_KJC			L_KJC			R_AJC			L_AJC			R_AJC_proj			R_5meta_proj			R_toe_proj			L_AJC_proj			L_5meta_proj			L_toe_proj			
		X1	Y1	Z1	X2	Y2	Z2	X3	Y3	Z3	X4	Y4	Z4	X5	Y5	Z5	X6	Y6	Z6	X7	Y7	Z7	X8	Y8	Z8	X9	Y9	Z9	X10	Y10	Z10	X11	Y11	Z11	X12	Y12	Z12	X13	Y13	Z13	X14	Y14	Z14	X15	Y15	Z15	X16	Y16	Z16	X17	Y17	Z17	X18	Y18	Z18	X19	Y19	Z19	X20	Y20	Z20	X21	Y21	Z21	X22	Y22	Z22	X23	Y23	Z23	X24	Y24	Z24	X25	Y25	Z25	X26	Y26	Z26	X27	Y27	Z27	X28	Y28	Z28	X29	Y29	Z29	X30	Y30	Z30	X31	Y31	Z31	X32	Y32	Z32	X33	Y33	Z33	X34	Y34	Z34	X35	Y35	Z35	X36	Y36	Z36	X37	Y37	Z37	X38	Y38	Z38	X39	Y39	Z39	X40	Y40	Z40	X41	Y41	Z41	X42	Y42	Z42	X43	Y43	Z43	X44	Y44	Z44	X45	Y45	Z45	X46	Y46	Z46	X47	Y47	Z47	X48	Y48	Z48	X49	Y49	Z49	X50	Y50	Z50	X51	Y51	Z51	X52	Y52	Z52	X53	Y53	Z53	X54	Y54	Z54	X55	Y55	Z55	X56	Y56	Z56	

171	3.40000	777.607	575.542	-408.920	790.747	490.901	-404.047	735.258	114.365	-409.104	646.554	71.532	-452.180	847.168	39.313	-382.258	886.273	73.357	-445.093	771.241	572.980	-732.465	795.040	456.207	-733.618	705.836	113.781	-731.855	630.088	73.982	-681.173	821.084	42.416	-777.871	868.443	70.679	-721.433	775.141	554.288	-534.303	747.354	120.773	-505.385	788.380	561.925	-609.845	737.320	120.787	-642.102	786.241	370.848	-401.047	715.694	491.402	-392.121	704.177	375.617	-385.942	707.644	476.755	-752.384	694.807	354.822	-753.578	850.178	897.412	-394.309	847.941	782.377	-394.246	802.405	750.113	-381.318	737.078	892.857	-384.802	741.717	775.621	-393.696	864.576	838.554	-751.830	863.748	700.464	-742.587	749.480	838.742	-771.960	751.680	704.524	-752.586	875.205	1093.534	-445.542	686.743	1127.107	-539.941	886.359	1095.355	-703.288	695.748	1126.236	-622.328	734.530	1608.645	-586.744	776.324	1581.830	-421.274	803.839	1575.409	-762.145	876.303	1534.901	-577.809	805.548	1005.460	-458.491	814.929	1007.325	-694.662	800.706	1018.027	-489.366	819.206	1016.237	-658.624	691.245	1126.671	-581.134	880.782	1094.444	-574.415	810.239	1006.393	-576.576	786.014	1110.558	-577.775	776.374	564.915	-471.612	779.810	567.452	-671.155	741.306	117.569	-457.244	721.578	117.284	-686.979	741.306	0.000	-457.244	847.168	0.000	-382.258	886.273	0.000	-445.093	721.578	0.000	-686.979	821.084	0.000	-777.871	868.443	0.000	-721.433
172	3.42000	777.633	575.522	-408.948	790.849	490.922	-404.085	735.285	114.353	-409.099	646.548	71.534	-452.150	847.166	39.318	-382.252	886.285	73.384	-445.086	771.515	572.975	-732.465	795.337	456.181	-733.593	705.899	113.871	-731.848	630.067	74.029	-681.135	821.049	42.454	-777.856	868.452	70.661	-721.410	775.188	554.257	-534.319	747.327	120.746	-505.392	788.676	561.916	-609.911	737.408	120.819	-642.081	786.307	370.828	-401.091	715.769	491.398	-392.116	704.252	375.646	-385.965	707.952	476.727	-752.409	695.022	354.802	-753.592	850.289	897.413	-394.346	848.073	782.298	-394.295	802.492	750.048	-381.296	737.155	892.855	-384.808	741.792	775.558	-393.744	864.677	838.580	-751.911	863.970	700.427	-742.690	749.617	838.824	-772.062	751.996	704.474	-752.697	875.222	1093.513	-445.701	686.748	1127.116	-539.994	886.442	1095.389	-703.405	695.733	1126.201	-622.367	734.620	1608.688	-586.613	776.435	1581.774	-421.193	803.856	1575.437	-762.065	876.366	1534.883	-577.815	805.600	1005.437	-458.605	814.953	1007.348	-694.777	800.736	1018.121	-489.463	819.196	1016.241	-658.699	691.241	1126.659	-581.181	880.832	1094.451	-574.553	810.276	1006.393	-576.691	786.036	1110.555	-577.867	776.411	564.889	-471.634	780.096	567.445	-671.188	741.306	117.549	-457.246	721.654	117.345	-686.965	741.306	0.000	-457.246	847.166	0.000	-382.252	886.285	0.000	-445.086	721.654	0.000	-686.965	821.049	0.000	-777.856	868.452	0.000	-721.410
173	3.44000	777.703	575.498	-408.992	790.874	490.907	-404.106	735.278	114.366	-409.109	646.551	71.585	-452.137	847.177	39.352	-382.219	886.280	73.367	-445.085	771.678	572.970	-732.482	795.523	456.147	-733.626	705.908	113.886	-731.846	630.111	74.046	-681.165	821.070	42.458	-777.847	868.460	70.655	-721.399	775.242	554.256	-534.372	747.384	120.787	-505.416	788.937	561.943	-609.902	737.452	120.837	-642.047	786.314	370.825	-401.150	715.817	491.418	-392.138	704.336	375.617	-386.000	708.107	476.718	-752.419	695.070	354.834	-753.601	850.422	897.393	-394.428	848.097	782.257	-394.427	802.583	750.002	-381.384	737.342	892.747	-384.788	741.881	775.490	-393.742	864.807	838.585	-751.978	864.153	700.457	-742.787	749.832	838.717	-772.164	752.169	704.466	-752.713	875.298	1093.503	-445.755	686.828	1127.074	-540.063	886.519	1095.420	-703.499	695.725	1126.266	-622.429	734.740	1608.682	-586.485	776.570	1581.712	-421.112	803.837	1575.480	-761.980	876.410	1534.825	-577.738	805.667	1005.418	-458.703	815.008	1007.391	-694.875	800.941	1017.963	-489.533	819.226	1016.302	-658.818	691.277	1126.670	-581.246	880.909	1094.461	-574.627	810.337	1006.404	-576.789	786.093	1110.566	-577.937	776.473	564.877	-471.682	780.308	567.457	-671.192	741.331	117.577	-457.263	721.680	117.362	-686.946	741.331	0.000	-457.263	847.177	0.000	-382.219	886.280	0.000	-445.085	721.680	0.000	-686.946	821.070	0.000	-777.847	868.460	0.000	-721.399
174	3.46000	777.807	575.430	-409.081	790.929	490.890	-404.191	735.278	114.352	-409.132	646.573	71.555	-452.203	847.165	39.325	-382.263	886.277	73.353	-445.076	771.791	572.921	-732.521	795.678	456.090	-733.627	705.913	113.866	-731.846	630.061	74.079	-681.138	821.069	42.443	-777.850	868.450	70.661	-721.417	775.250	554.230	-534.462	747.376	120.734	-505.423	789.024	561.939	-609.943	737.368	120.823	-642.062	786.343	370.816	-401.166	715.877	491.402	-392.209	704.326	375.602	-386.036	708.203	476.722	-752.437	695.278	354.801	-753.712	850.474	897.284	-394.435	848.191	782.117	-394.442	802.707	749.923	-381.453	737.442	892.676	-384.750	742.043	775.432	-393.715	864.939	838.572	-751.995	864.292	700.436	-742.779	749.844	838.722	-772.124	752.254	704.438	-752.745	875.363	1093.491	-445.838	686.883	1127.070	-540.145	886.572	1095.420	-703.563	695.840	1126.121	-622.552	734.823	1608.701	-586.461	776.721	1581.638	-421.038	803.807	1575.485	-761.898	876.490	1534.731	-577.769	805.763	1005.401	-458.774	815.121	1007.343	-694.945	800.895	1018.160	-489.543	819.291	1016.212	-658.799	691.361	1126.595	-581.348	880.967	1094.456	-574.701	810.442	1006.372	-576.860	786.164	1110.525	-578.024	776.528	564.830	-471.771	780.407	567.430	-671.232	741.327	117.543	-457.278	721.641	117.344	-686.954	741.327	0.000	-457.278	847.165	0.000	-382.263	886.277	0.000	-445.076	721.641	0.000	-686.954	821.069	0.000	-777.850	868.450	0.000	-721.417
175	3.48000	777.933	575.378	-409.152	791.000	490.899	-404.190	735.292	114.337	-409.151	646.570	71.511	-452.239	847.184	39.330	-382.232	886.281	73.353	-445.099	771.933	572.859	-732.537	795.721	456.100	-733.650	705.861	113.809	-731.859	630.114	73.959	-681.154	821.083	42.416	-777.855	868.460	70.625	-721.405	775.274	554.203	-534.495	747.353	120.735	-505.440	789.153	561.948	-609.928	737.487	120.834	-642.061	786.390	370.800	-401.175	715.906	491.372	-392.248	704.388	375.598	-386.077	708.271	476.707	-752.459	695.186	354.812	-753.605	850.628	897.231	-394.514	848.244	782.200	-394.601	802.871	749.831	-381.495	737.582	892.609	-384.657	742.226	775.316	-393.692	865.015	838.532	-752.017	864.389	700.378	-742.786	749.983	838.638	-772.024	752.410	704.492	-752.790	875.420	1093.546	-445.798	686.936	1126.960	-540.177	886.632	1095.447	-703.611	695.910	1126.019	-622.572	734.938	1608.647	-586.329	776.859	1581.532	-420.952	803.794	1575.481	-761.841	876.576	1534.632	-577.732	805.894	1005.400	-458.774	815.265	1007.316	-694.945	801.000	1018.105	-489.534	819.440	1016.172	-658.844	691.423	1126.490	-581.374	881.026	1094.496	-574.704	810.580	1006.358	-576.859	786.224	1110.493	-578.039	776.604	564.790	-471.824	780.543	567.403	-671.233	741.323	117.536	-457.295	721.674	117.322	-686.960	741.323	0.000	-457.295	847.184	0.000	-382.232	886.281	0.000	-445.099	721.674	0.000	-686.960	821.083	0.000	-777.855	868.460	0.000	-721.405
